<?xml version="1.0" encoding="UTF-8" standalone="no"?>
<svg xmlns:rdf="http://www.w3.org/1999/02/22-rdf-syntax-ns#" xmlns="http://www.w3.org/2000/svg" height="500" width="500" version="1.1" xmlns:cc="http://creativecommons.org/ns#" xmlns:dc="http://purl.org/dc/elements/1.1/">
<g fill-rule="evenodd" transform="translate(0 -552.36)" stroke="#000" stroke-width="1.069">
<path d="m423.34 504.53c-1.1531-5.1066-2.2626-10.24-3.625-15.188-2.0212-7.339-4.2592-14.515-6.7188-21.469-2.4595-6.9536-5.1289-13.692-8-20.219s-5.9628-12.816-9.2188-18.875c-3.256-6.0593-6.6985-11.887-10.312-17.438-3.614-5.5505-7.3984-10.843-11.344-15.844-3.9453-5.0006-8.0314-9.7155-12.281-14.125-4.2498-4.4095-8.6599-8.5038-13.188-12.281-2.2638-1.8887-4.5468-3.7145-6.875-5.4375s-4.7045-3.3542-7.0938-4.9062c-2.3893-1.5521-4.803-2.999-7.25-4.375s-4.9361-2.6801-7.4375-3.875-5.0101-2.3039-7.5625-3.3125-5.1499-1.9016-7.75-2.7188c-2.6001-0.81715-5.1993-1.5357-7.8438-2.1562-2.6445-0.62057-5.3145-1.1436-8-1.5625-2.6855-0.41885-5.4019-0.75675-8.125-0.96875s-5.4613-0.3125-8.2188-0.3125c-2.7574 0-5.4956 0.1005-8.2188 0.3125-2.7231 0.212-5.4395 0.5499-8.125 0.96875s-5.3243 0.94193-7.9688 1.5625-5.2749 1.3391-7.875 2.1562c-2.6001 0.81715-5.1976 1.7102-7.75 2.7188s-5.0611 2.1176-7.5625 3.3125-4.9905 2.499-7.4375 3.875-4.8607 2.8229-7.25 4.375-4.7343 3.1833-7.0625 4.9062c-2.3282 1.723-4.6424 3.5488-6.9062 5.4375-4.5276 3.7774-8.9064 7.8717-13.156 12.281-4.2498 4.4095-8.3672 9.1244-12.312 14.125-3.9453 5.0006-7.7297 10.293-11.344 15.844-3.614 5.5505-7.0565 11.378-10.312 17.438-3.256 6.0593-6.3164 12.348-9.1875 18.875s-5.5405 13.265-8 20.219c-2.4595 6.9536-4.7288 14.13-6.75 21.469-1.3624 4.9471-2.4719 10.081-3.625 15.188h301.69z" transform="translate(0 552.36)" fill="#d1d1d1"/>
<path d="m0-6.0625v510.59h121.66c1.1531-5.1066 2.2626-10.24 3.625-15.188 2.0212-7.339 4.2905-14.515 6.75-21.469 2.4595-6.9536 5.1289-13.692 8-20.219s5.9315-12.816 9.1875-18.875c3.256-6.0593 6.6985-11.887 10.312-17.438 3.614-5.5505 7.3984-10.843 11.344-15.844 3.9453-5.0006 8.0626-9.7155 12.312-14.125 4.2498-4.4095 8.6286-8.5038 13.156-12.281 2.2638-1.8887 4.578-3.7145 6.9062-5.4375s4.6732-3.3542 7.0625-4.9062c2.3893-1.5521 4.803-2.999 7.25-4.375s4.9361-2.6801 7.4375-3.875 5.0101-2.3039 7.5625-3.3125 5.1499-1.9016 7.75-2.7188c2.6001-0.81715 5.2305-1.5357 7.875-2.1562 2.6445-0.62057 5.2833-1.1436 7.9688-1.5625 2.6855-0.41885 5.4019-0.75675 8.125-0.96875s5.4613-0.3125 8.2188-0.3125c2.7574 0 5.4956 0.1005 8.2188 0.3125 2.7231 0.212 5.4395 0.5499 8.125 0.96875s5.3555 0.94193 8 1.5625 5.2436 1.3391 7.8438 2.1562c2.6001 0.81715 5.1976 1.7102 7.75 2.7188s5.0611 2.1176 7.5625 3.3125 4.9905 2.499 7.4375 3.875 4.8607 2.8229 7.25 4.375 4.7655 3.1833 7.0938 4.9062c2.3282 1.723 4.6112 3.5488 6.875 5.4375 4.5276 3.7774 8.9376 7.8717 13.188 12.281 4.2498 4.4095 8.3359 9.1244 12.281 14.125 3.9453 5.0006 7.7297 10.293 11.344 15.844 3.614 5.5505 7.0565 11.378 10.312 17.438 3.256 6.0593 6.3476 12.348 9.2188 18.875 2.8711 6.527 5.5405 13.265 8 20.219 2.4595 6.9536 4.6976 14.13 6.7188 21.469 1.3624 4.9471 2.4719 10.081 3.625 15.188h81.188v-510.59l-504.51-0.0125z" transform="translate(0 552.36)" fill="#9b96d6"/>
<path d="m365.15 234.09a108.33 96.212 0 1 1 -216.67 0 108.33 96.212 0 1 1 216.67 0z" transform="matrix(.91835 0 0 1.0002 21.193 550.26)" fill="#d1d1d1"/>
<path d="m146.97 240.15a41.667 128.03 0 1 1 -83.333 0 41.667 128.03 0 1 1 83.333 0z" transform="matrix(.87034 -.49299 .47248 .83415 -110.42 664.56)" fill="#d1d1d1"/>
<path d="m146.97 240.15a41.667 128.03 0 1 1 -83.333 0 41.667 128.03 0 1 1 83.333 0z" transform="matrix(.94547 .32652 -.31294 .90615 392.26 556.43)" fill="#d1d1d1"/>
</g>
</svg>
